<svg width="48" height="48" viewBox="0 0 48 48" fill="none" xmlns="http://www.w3.org/2000/svg">
<g clip-path="url(#clip0_343_878)">
<path d="M11.745 4.34063C12.3375 2.85938 11.8575 1.05938 10.6725 0.318756C9.4875 -0.421869 8.0475 0.178131 7.455 1.65938L1.0125 17.7563C0.345 19.425 0 21.2625 0 23.1281V24C0 30.6281 4.2975 36 9.6 36H15H15.6V35.9719C18.24 35.7188 20.505 33.8344 21.7575 31.125C22.4175 29.6906 22.0275 27.8531 20.88 27.0281C19.7325 26.2031 18.2625 26.6906 17.6025 28.125C17.0775 29.25 16.11 30 15 30C13.3425 30 12 28.3219 12 26.25C12 24.1781 13.3425 22.5 15 22.5C16.11 22.5 17.0775 23.25 17.6025 24.375C18.2625 25.8094 19.7325 26.2969 20.88 25.4719C22.0275 24.6469 22.4175 22.8094 21.7575 21.375C20.7975 19.3031 19.2375 17.7094 17.3775 16.9594L23.4375 14.8969C24.7125 14.4656 25.47 12.8156 25.125 11.2125C24.78 9.60938 23.46 8.67188 22.1775 9.10313L14.6175 11.6813L20.7375 5.30626C21.7575 4.24688 21.8925 2.35313 21.045 1.07813C20.1975 -0.196869 18.6825 -0.365619 17.6625 0.693756L10.02 8.65313L11.745 4.34063ZM36.255 43.6594C35.6625 45.1406 36.1425 46.9406 37.3275 47.6813C38.5125 48.4219 39.9525 47.8219 40.545 46.3406L46.9875 30.2438C47.655 28.575 48 26.7375 48 24.8813V24C48 17.3719 43.7025 12 38.4 12H33H32.4V12.0281C29.76 12.2813 27.495 14.1656 26.2425 16.875C25.575 18.3094 25.9725 20.1469 27.12 20.9719C28.2675 21.7969 29.7375 21.3094 30.3975 19.875C30.9225 18.75 31.89 18 33 18C34.6575 18 36 19.6781 36 21.75C36 23.8219 34.6575 25.5 33 25.5C31.89 25.5 30.9225 24.75 30.3975 23.625C29.73 22.1906 28.2675 21.7031 27.12 22.5281C25.9725 23.3531 25.5825 25.1906 26.2425 26.625C27.2025 28.6969 28.7625 30.2906 30.6225 31.0406L24.5625 33.1031C23.28 33.5438 22.53 35.1844 22.875 36.7875C23.22 38.3906 24.54 39.3281 25.8225 38.8969L33.375 36.3188L27.255 42.6938C26.235 43.7531 26.1 45.6469 26.9475 46.9219C27.795 48.1969 29.31 48.3656 30.33 47.3063L37.9725 39.3469L36.2475 43.6594H36.255Z" fill="#4CAF4F"/>
</g>
<defs>
<clipPath id="clip0_343_878">
<rect width="48" height="48" fill="white"/>
</clipPath>
</defs>
</svg>
