<svg width="41" height="29" viewBox="0 0 41 29" fill="none" xmlns="http://www.w3.org/2000/svg">
<g clip-path="url(#clip0_211_718)">
<path fill-rule="evenodd" clip-rule="evenodd" d="M10.0981 4.36047L0.112305 14.2458C2.10964 16.2231 4.39129 17.8895 6.87894 19.1932C7.56655 20.9988 8.64433 22.6921 10.1123 24.1453C15.6352 29.6126 24.5895 29.6126 30.1123 24.1453C31.5803 22.6921 32.6581 20.9988 33.3457 19.1931C35.8333 17.8895 38.115 16.2231 40.1123 14.2458L30.1346 4.36851C30.1272 4.36112 30.1198 4.35373 30.1123 4.34635C24.5895 -1.12098 15.6352 -1.12098 10.1123 4.34635C10.1076 4.35106 10.1028 4.35576 10.0981 4.36047ZM29.1568 20.9767C26.2468 21.9489 23.192 22.4468 20.1123 22.4468C17.0326 22.4468 13.9779 21.9489 11.0679 20.9767C11.3832 21.3908 11.7313 21.7882 12.1123 22.1654C16.5306 26.5393 23.694 26.5393 28.1123 22.1654C28.4933 21.7882 28.8415 21.3908 29.1568 20.9767ZM12.3174 6.12825C13.0677 6.61896 13.8655 7.03887 14.7003 7.38121C16.4161 8.08477 18.2551 8.44689 20.1123 8.44689C21.9695 8.44689 23.8085 8.08477 25.5243 7.38121C26.3591 7.03887 27.1569 6.61895 27.9073 6.12823C23.5441 2.01838 16.6805 2.01839 12.3174 6.12825Z" fill="#3B4158"/>
</g>
<defs>
<clipPath id="clip0_211_718">
<rect width="40" height="28" fill="white" transform="translate(0.112305 0.24585)"/>
</clipPath>
</defs>
</svg>
